# xmcd
#
# Track frame offsets: 
#        151
#        13238
#        27635
#        43218
#        52619
#        69166
#        79897
#        90932
#        110405
#        122390
#        135325
#        148412
#        158869
#        169168
#        180175
#        198588
#        213647
#
# Disc length: 3071 seconds
#
# Revision: 0
# Processed by: cddbd v1.5.1PL2 Copyright (c) Steve Scherf et al.
# Submitted via: ExactAudioCopy v0.95b3
#
DISCID=e40bfd11
DTITLE=J J Cale - Special Edition
DYEAR=1900
DGENRE=Blues
TTITLE0=Cocaine
TTITLE1=Don't Wait
TTITLE2=Magnolia
TTITLE3=Devil in Disguise
TTITLE4=Sensitive Kind
TTITLE5=Carry on
TTITLE6=After Midnight
TTITLE7=Money Talks
TTITLE8=Call me the Breeze
TTITLE9=Lies
TTITLE10=City Girls
TTITLE11=Cajun Moon
TTITLE12=Don't Cry Sister
TTITLE13=Crazy Mama
TTITLE14=Artificial Paridise
TTITLE15=Feeling in Love
TTITLE16=She's in Love
EXTD=
EXTT0=
EXTT1=
EXTT2=
EXTT3=
EXTT4=
EXTT5=
EXTT6=
EXTT7=
EXTT8=
EXTT9=
EXTT10=
EXTT11=
EXTT12=
EXTT13=
EXTT14=
EXTT15=
EXTT16=
PLAYORDER=
